<svg aria-hidden="true" style="position: absolute; width: 0; height: 0; overflow: hidden;" version="1.1" xmlns="http://www.w3.org/2000/svg" xmlns:xlink="http://www.w3.org/1999/xlink">
<defs>
<symbol id="icon-play" viewBox="0 0 27 32">
<path stroke-linejoin="round" stroke-linecap="butt" stroke-miterlimit="4" stroke-width="2.6667" d="M1.774 2.667v26.674l22.229-13.337-22.229-13.337z"></path>
</symbol>
<symbol id="icon-plus" viewBox="0 0 34 32">
<path stroke-linejoin="round" stroke-linecap="round" stroke-miterlimit="4" stroke-width="3.4286" d="M17.143 1.722v28.571M2.857 16.008h28.571"></path>
</symbol>
<symbol id="icon-search" viewBox="0 0 32 32">
<path stroke-linejoin="round" stroke-linecap="round" stroke-miterlimit="4" stroke-width="2.0211" d="M30.327 30.327l-7.071-7.071M26.957 14.321c0-6.979-5.657-12.636-12.636-12.636s-12.636 5.657-12.636 12.636 5.657 12.636 12.636 12.636 12.636-5.657 12.636-12.636z"></path>
</symbol>
<symbol id="icon-user" viewBox="0 0 33 32">
<path stroke-linejoin="miter" stroke-linecap="butt" stroke-miterlimit="4" stroke-width="1.3333" d="M26.447 27.182c0-2.7-1.953-6.181-5-6.181h-10.001c-3.047-0-5 3.481-5 6.181M1.445 16.001c0-8.285 6.716-15.001 15.001-15.001s15.001 6.716 15.001 15.001-6.716 15.001-15.001 15.001-15.001-6.716-15.001-15.001zM21.446 11c0 2.762-2.239 5-5 5s-5-2.239-5-5 2.239-5 5-5 5 2.239 5 5z"></path>
</symbol>
<symbol id="icon-notification" viewBox="0 0 29 32">
<path stroke-linejoin="round" stroke-linecap="round" stroke-miterlimit="4" stroke-width="2.4" d="M9.604 24v1.6c0 1.988 1.209 3.694 2.932 4.423l0.031 0.012c0.543 0.231 1.174 0.366 1.837 0.366 1.325 0 2.525-0.537 3.394-1.406v0c0.869-0.868 1.406-2.068 1.406-3.394 0-0 0-0 0-0v0-1.6M24.004 11.2c0 4.8 3.2 12.8 3.2 12.8h-25.6s3.2-6.4 3.2-12.8c0-5.229 4.371-9.6 9.6-9.6s9.6 4.371 9.6 9.6z"></path>
</symbol>
<symbol id="icon-arrow" viewBox="0 0 18 32">
<path stroke-linejoin="round" stroke-linecap="round" stroke-miterlimit="4" stroke-width="2.6667" d="M1.776 30.231l14.226-14.226-14.226-14.226"></path>
</symbol>
<symbol id="icon-youtube" viewBox="0 0 31 32">
<path stroke-linejoin="round" stroke-linecap="round" stroke-miterlimit="4" stroke-width="1.92" d="M28.856 8.858c-0.318-1.241-1.257-2.205-2.458-2.554l-0.025-0.006c-2.202-0.538-11.008-0.538-11.008-0.538s-8.806 0-11.008 0.589c-1.226 0.355-2.165 1.319-2.478 2.535l-0.005 0.025c-0.375 1.981-0.589 4.259-0.589 6.588 0 0.064 0 0.129 0 0.193l-0-0.010c-0 0.069-0.001 0.151-0.001 0.233 0 2.329 0.214 4.608 0.625 6.818l-0.035-0.229c0.349 1.198 1.28 2.121 2.458 2.452l0.025 0.006c2.202 0.589 11.008 0.589 11.008 0.589s8.806 0 11.008-0.589c1.226-0.355 2.165-1.319 2.478-2.535l0.005-0.025c0.375-1.981 0.589-4.259 0.589-6.587 0-0.047-0-0.093-0-0.14l0 0.007c0-0.069 0.001-0.151 0.001-0.233 0-2.329-0.215-4.609-0.625-6.819l0.035 0.229z"></path>
<path stroke-linejoin="round" stroke-linecap="round" stroke-miterlimit="4" stroke-width="1.92" d="M12.484 19.866l7.36-4.186-7.36-4.186v8.371z"></path>
</symbol>
<symbol id="icon-instagram" viewBox="0 0 31 32">
<path stroke-linejoin="round" stroke-linecap="round" stroke-miterlimit="4" stroke-width="1.92" d="M21.764 3.2h-12.8c-3.535 0-6.4 2.865-6.4 6.4v12.8c0 3.535 2.865 6.4 6.4 6.4h12.8c3.535 0 6.4-2.865 6.4-6.4v-12.8c0-3.535-2.865-6.4-6.4-6.4z"></path>
<path stroke-linejoin="round" stroke-linecap="round" stroke-miterlimit="4" stroke-width="1.92" d="M20.484 15.194c0.036 0.228 0.057 0.491 0.057 0.759 0 2.828-2.292 5.12-5.12 5.12-2.566 0-4.691-1.887-5.062-4.349l-0.004-0.028c-0.034-0.223-0.054-0.481-0.054-0.743 0-2.828 2.292-5.12 5.12-5.12 2.56 0 4.681 1.879 5.060 4.333l0.004 0.029zM22.404 8.96h0.013"></path>
</symbol>
<symbol id="icon-facebook" viewBox="0 0 31 32">
<path stroke-linejoin="round" stroke-linecap="round" stroke-miterlimit="4" stroke-width="1.92" d="M23.044 3.2h-3.84c-0 0-0 0-0 0-3.534 0-6.4 2.865-6.4 6.4 0 0 0 0 0 0v-0 3.84h-3.84v5.12h3.84v10.24h5.12v-10.24h3.84l1.28-5.12h-5.12v-3.84c0-0.707 0.573-1.28 1.28-1.28h3.84v-5.12z"></path>
</symbol>
</defs>
</svg>
